<?xml version="1.0" encoding="UTF-8"?>
<svg id="Livello_2" data-name="Livello 2" xmlns="http://www.w3.org/2000/svg" viewBox="0 0 1141.87 572.36">
  <defs>
    <style>
      .cls-1 {
        fill: #fff;
      }

      .cls-2 {
        fill: #dc6c2d;
      }
    </style>
  </defs>
  <g id="Livello_1-2" data-name="Livello 1">
    <g>
      <rect class="cls-1" x="78.78" width="1063.09" height="500.45" rx="22.52" ry="22.52"/>
      <g>
        <path d="M146.73,132.38V63.74h9.37l27.83,44.52h-5.37l27.73-44.52h9.37v68.64h-13.18v-45.89l2.54.78-19.33,31.05h-8.98l-19.33-31.05,2.64-.78v45.89h-13.28Z"/>
        <path d="M224.64,132.38l27.63-68.64h10.84l27.53,68.64h-14.16l-21.28-56.33h4.88l-21.58,56.33h-13.86ZM239.28,119.59v-11.13h36.91v11.13h-36.91Z"/>
        <path d="M298.74,132.38V63.74h13.28v68.64h-13.28ZM308.51,103.67v-10.35h15.91c3.25,0,5.78-.83,7.57-2.49,1.79-1.66,2.69-3.95,2.69-6.88,0-2.67-.9-4.9-2.69-6.69-1.79-1.79-4.31-2.68-7.57-2.68h-15.91v-10.84h17.09c4.43,0,8.31.86,11.67,2.59,3.35,1.73,5.96,4.08,7.81,7.08,1.85,3,2.78,6.44,2.78,10.35s-.93,7.53-2.78,10.5-4.48,5.27-7.86,6.93c-3.39,1.66-7.32,2.49-11.81,2.49h-16.89ZM336.23,132.38l-22.65-29.68,12.2-3.81,26.56,33.49h-16.11Z"/>
        <path d="M359.86,132.38V63.74h13.28v68.64h-13.28ZM401.36,132.38l-29.78-35.83,29-32.81h16.6l-32.32,35.64.1-6.15,33.29,39.15h-16.89Z"/>
        <path d="M425.28,132.38V63.74h13.28v68.64h-13.28ZM435.04,75.45v-11.72h37.49v11.72h-37.49ZM435.04,102.99v-11.33h34.56v11.33h-34.56ZM435.04,132.38v-11.72h37.98v11.72h-37.98Z"/>
        <path d="M477.03,75.55v-11.81h57.12v11.81h-57.12ZM498.9,132.38v-67.17h13.38v67.17h-13.38Z"/>
        <path d="M543.32,132.38V63.74h13.28v68.64h-13.28ZM553.08,106.89v-10.84h15.91c2.08,0,3.97-.42,5.66-1.27,1.69-.84,3.03-2.07,4-3.66.98-1.59,1.46-3.53,1.46-5.81s-.49-4.13-1.46-5.76c-.98-1.63-2.31-2.86-4-3.71-1.69-.85-3.58-1.27-5.66-1.27h-15.91v-10.84h17.28c4.36,0,8.28.88,11.76,2.64,3.48,1.76,6.23,4.25,8.25,7.47,2.02,3.22,3.03,7.05,3.03,11.47s-1.01,8.25-3.03,11.47c-2.02,3.22-4.77,5.71-8.25,7.47-3.48,1.76-7.4,2.64-11.76,2.64h-17.28Z"/>
        <path d="M602.78,132.38V63.74h13.28v68.64h-13.28ZM612.54,132.38v-11.81h34.95v11.81h-34.95Z"/>
        <path d="M649.94,132.38l27.63-68.64h10.84l27.53,68.64h-14.16l-21.28-56.33h4.88l-21.58,56.33h-13.86ZM664.58,119.59v-11.13h36.91v11.13h-36.91Z"/>
        <path d="M751.97,133.35c-5.01,0-9.67-.9-13.96-2.69-4.3-1.79-8.06-4.3-11.28-7.52-3.22-3.22-5.7-6.98-7.42-11.28-1.73-4.3-2.59-8.92-2.59-13.86s.86-9.57,2.59-13.86c1.72-4.3,4.2-8.04,7.42-11.23,3.22-3.19,6.96-5.69,11.23-7.52,4.26-1.82,8.93-2.73,14.01-2.73,5.47,0,10.28.9,14.45,2.68,4.16,1.79,7.84,4.25,11.03,7.37l-8.98,8.98c-1.89-2.08-4.2-3.71-6.93-4.88-2.73-1.17-5.92-1.76-9.57-1.76-3.19,0-6.1.54-8.74,1.61-2.64,1.07-4.93,2.64-6.88,4.69-1.95,2.05-3.45,4.49-4.49,7.32-1.04,2.83-1.56,5.94-1.56,9.32s.52,6.58,1.56,9.37c1.04,2.8,2.54,5.22,4.49,7.27,1.95,2.05,4.25,3.63,6.88,4.74,2.64,1.11,5.55,1.66,8.74,1.66,3.84,0,7.14-.59,9.91-1.76,2.77-1.17,5.09-2.83,6.98-4.98l8.98,8.98c-3.19,3.19-6.9,5.66-11.13,7.42-4.23,1.76-9.15,2.64-14.74,2.64Z"/>
        <path d="M787.11,132.38V63.74h13.28v68.64h-13.28ZM796.88,75.45v-11.72h37.49v11.72h-37.49ZM796.88,102.99v-11.33h34.56v11.33h-34.56ZM796.88,132.38v-11.72h37.98v11.72h-37.98Z"/>
      </g>
      <rect x="139.89" y="185.03" width="424.24" height="99.53" rx="49.76" ry="49.76"/>
      <g>
        <path class="cls-1" d="M189.44,251.55c-2.84,0-5.26-.51-7.25-1.54-1.99-1.03-3.77-2.54-5.35-4.52l4.01-4.01c.99,1.44,2.18,2.56,3.55,3.37,1.37.81,3.12,1.21,5.24,1.21,1.99,0,3.57-.41,4.75-1.23s1.77-1.95,1.77-3.39c0-1.2-.31-2.18-.93-2.93s-1.43-1.38-2.44-1.88c-1.01-.5-2.12-.94-3.34-1.34-1.22-.39-2.43-.84-3.65-1.34-1.22-.5-2.33-1.12-3.34-1.88-1.01-.75-1.83-1.73-2.44-2.93-.62-1.2-.93-2.72-.93-4.58,0-2.12.52-3.93,1.57-5.42,1.04-1.49,2.46-2.63,4.24-3.42,1.78-.79,3.77-1.18,5.96-1.18,2.36,0,4.48.46,6.35,1.39,1.87.93,3.38,2.11,4.55,3.55l-4.01,4.01c-1.03-1.17-2.1-2.03-3.21-2.6-1.11-.57-2.39-.85-3.83-.85-1.78,0-3.18.36-4.19,1.08-1.01.72-1.52,1.73-1.52,3.03,0,1.1.31,1.98.92,2.65.62.67,1.43,1.23,2.44,1.7,1.01.46,2.12.9,3.34,1.31,1.22.41,2.43.87,3.65,1.39,1.22.51,2.33,1.17,3.34,1.98,1.01.81,1.82,1.84,2.44,3.11.62,1.27.93,2.86.93,4.78,0,3.22-1.14,5.77-3.42,7.66-2.28,1.89-5.35,2.83-9.23,2.83Z"/>
        <path class="cls-1" d="M224.86,251.55c-2.57,0-4.97-.48-7.2-1.44s-4.18-2.29-5.86-3.98c-1.68-1.7-2.99-3.67-3.93-5.91-.94-2.24-1.41-4.65-1.41-7.22s.47-4.97,1.41-7.2c.94-2.23,2.24-4.19,3.91-5.88,1.66-1.7,3.6-3.02,5.81-3.96,2.21-.94,4.6-1.41,7.17-1.41s4.96.47,7.17,1.41c2.21.94,4.15,2.26,5.83,3.96,1.68,1.7,2.99,3.67,3.93,5.91.94,2.25,1.41,4.65,1.41,7.22s-.47,4.98-1.41,7.22c-.94,2.24-2.25,4.21-3.91,5.89-1.66,1.68-3.6,3-5.81,3.96s-4.58,1.44-7.12,1.44ZM224.76,245.9c2.43,0,4.57-.55,6.4-1.64,1.83-1.1,3.27-2.61,4.32-4.55,1.04-1.94,1.57-4.17,1.57-6.71,0-1.88-.3-3.61-.9-5.17-.6-1.56-1.45-2.91-2.54-4.06-1.1-1.15-2.39-2.03-3.88-2.65-1.49-.62-3.14-.93-4.96-.93-2.4,0-4.52.54-6.35,1.62-1.83,1.08-3.27,2.58-4.32,4.5-1.05,1.92-1.57,4.15-1.57,6.68,0,1.88.3,3.62.9,5.22s1.44,2.96,2.52,4.09,2.37,2.01,3.88,2.65c1.51.63,3.15.95,4.93.95Z"/>
        <path class="cls-1" d="M265.88,251.55c-2.6,0-5.01-.47-7.22-1.41-2.21-.94-4.14-2.26-5.78-3.96-1.65-1.7-2.91-3.67-3.8-5.91-.89-2.24-1.34-4.65-1.34-7.22s.44-4.98,1.34-7.22c.89-2.24,2.16-4.21,3.8-5.89,1.64-1.68,3.57-3,5.78-3.96,2.21-.96,4.62-1.44,7.22-1.44,2.91,0,5.43.48,7.56,1.44,2.12.96,4.01,2.26,5.65,3.91l-4.01,4.01c-1.06-1.17-2.36-2.07-3.88-2.72-1.52-.65-3.3-.98-5.32-.98-1.78,0-3.41.31-4.88.93-1.47.62-2.75,1.5-3.83,2.65-1.08,1.15-1.91,2.51-2.49,4.09-.58,1.58-.87,3.31-.87,5.19s.29,3.62.87,5.19c.58,1.58,1.41,2.94,2.49,4.09,1.08,1.15,2.36,2.03,3.83,2.65,1.47.62,3.1.92,4.88.92,2.19,0,4.05-.33,5.58-1,1.52-.67,2.82-1.58,3.88-2.75l4.01,4.01c-1.65,1.68-3.58,3-5.81,3.96-2.23.96-4.78,1.44-7.66,1.44Z"/>
        <path class="cls-1" d="M284.64,251.04v-35.98h5.91v35.98h-5.91Z"/>
        <path class="cls-1" d="M295.69,251.04l14.8-35.98h4.11l14.7,35.98h-6.37l-11.51-29.15h2.16l-11.62,29.15h-6.27ZM302.99,244.1v-5.14h19.07v5.14h-19.07Z"/>
        <path class="cls-1" d="M334.04,251.04v-35.98h5.91v35.98h-5.91ZM338.1,251.04v-5.4h18.81v5.4h-18.81Z"/>
        <path class="cls-1" d="M372.18,251.04v-35.98h4.11l14.96,24.62h-2.67l14.96-24.62h4.11v35.98h-5.91v-25.6l1.34.36-11.1,18.25h-4.11l-11.1-18.25,1.34-.36v25.6h-5.91Z"/>
        <path class="cls-1" d="M415.46,251.04v-35.98h5.91v35.98h-5.91ZM419.52,220.45v-5.4h19.89v5.4h-19.89ZM419.52,235.26v-5.19h18.4v5.19h-18.4ZM419.52,251.04v-5.4h20.15v5.4h-20.15Z"/>
        <path class="cls-1" d="M445.79,251.04v-35.98h5.91v35.98h-5.91ZM449.85,251.04v-5.4h9.46c2.47,0,4.63-.53,6.5-1.59,1.87-1.06,3.32-2.54,4.37-4.45,1.04-1.9,1.57-4.1,1.57-6.6s-.53-4.64-1.59-6.53c-1.06-1.88-2.53-3.36-4.4-4.42-1.87-1.06-4.02-1.59-6.45-1.59h-9.46v-5.4h9.61c2.6,0,5.02.46,7.25,1.36,2.23.91,4.17,2.18,5.83,3.8,1.66,1.63,2.96,3.53,3.88,5.71.92,2.18,1.39,4.55,1.39,7.12s-.46,4.9-1.39,7.09c-.93,2.19-2.21,4.1-3.86,5.73-1.65,1.63-3.58,2.9-5.81,3.8-2.23.91-4.63,1.36-7.2,1.36h-9.72Z"/>
        <path class="cls-1" d="M483.83,251.04v-35.98h5.91v35.98h-5.91Z"/>
        <path class="cls-1" d="M494.88,251.04l14.8-35.98h4.11l14.7,35.98h-6.37l-11.51-29.15h2.16l-11.62,29.15h-6.27ZM502.18,244.1v-5.14h19.07v5.14h-19.07Z"/>
      </g>
      <rect x="610.32" y="185.03" width="300.6" height="99.53" rx="49.76" ry="49.76"/>
      <g>
        <path class="cls-1" d="M659.88,251.55c-2.84,0-5.26-.51-7.25-1.54-1.99-1.03-3.77-2.54-5.35-4.52l4.01-4.01c.99,1.44,2.18,2.56,3.55,3.37,1.37.81,3.12,1.21,5.24,1.21,1.99,0,3.57-.41,4.75-1.23s1.77-1.95,1.77-3.39c0-1.2-.31-2.18-.93-2.93s-1.43-1.38-2.44-1.88c-1.01-.5-2.12-.94-3.34-1.34-1.22-.39-2.43-.84-3.65-1.34-1.22-.5-2.33-1.12-3.34-1.88-1.01-.75-1.83-1.73-2.44-2.93-.62-1.2-.93-2.72-.93-4.58,0-2.12.52-3.93,1.57-5.42,1.04-1.49,2.46-2.63,4.24-3.42,1.78-.79,3.77-1.18,5.96-1.18,2.36,0,4.48.46,6.35,1.39,1.87.93,3.38,2.11,4.55,3.55l-4.01,4.01c-1.03-1.17-2.1-2.03-3.21-2.6-1.11-.57-2.39-.85-3.83-.85-1.78,0-3.18.36-4.19,1.08-1.01.72-1.52,1.73-1.52,3.03,0,1.1.31,1.98.92,2.65.62.67,1.43,1.23,2.44,1.7,1.01.46,2.12.9,3.34,1.31,1.22.41,2.43.87,3.65,1.39,1.22.51,2.33,1.17,3.34,1.98,1.01.81,1.82,1.84,2.44,3.11.62,1.27.93,2.86.93,4.78,0,3.22-1.14,5.77-3.42,7.66-2.28,1.89-5.35,2.83-9.23,2.83Z"/>
        <path class="cls-1" d="M678.44,251.04v-35.98h5.91v35.98h-5.91Z"/>
        <path class="cls-1" d="M689.49,220.45v-5.4h29.35v5.4h-29.35ZM701.21,251.04v-34.95h5.91v34.95h-5.91Z"/>
        <path class="cls-1" d="M738.17,251.55c-2.57,0-4.97-.48-7.2-1.44s-4.18-2.29-5.86-3.98c-1.68-1.7-2.99-3.67-3.93-5.91-.94-2.24-1.41-4.65-1.41-7.22s.47-4.97,1.41-7.2c.94-2.23,2.24-4.19,3.91-5.88,1.66-1.7,3.6-3.02,5.81-3.96,2.21-.94,4.6-1.41,7.17-1.41s4.96.47,7.17,1.41c2.21.94,4.15,2.26,5.83,3.96,1.68,1.7,2.99,3.67,3.93,5.91.94,2.25,1.41,4.65,1.41,7.22s-.47,4.98-1.41,7.22c-.94,2.24-2.25,4.21-3.91,5.89-1.66,1.68-3.6,3-5.81,3.96s-4.58,1.44-7.12,1.44ZM738.06,245.9c2.43,0,4.57-.55,6.4-1.64,1.83-1.1,3.27-2.61,4.32-4.55,1.04-1.94,1.57-4.17,1.57-6.71,0-1.88-.3-3.61-.9-5.17-.6-1.56-1.45-2.91-2.54-4.06-1.1-1.15-2.39-2.03-3.88-2.65-1.49-.62-3.14-.93-4.96-.93-2.4,0-4.52.54-6.35,1.62-1.83,1.08-3.27,2.58-4.32,4.5-1.05,1.92-1.57,4.15-1.57,6.68,0,1.88.3,3.62.9,5.22s1.44,2.96,2.52,4.09,2.37,2.01,3.88,2.65c1.51.63,3.15.95,4.93.95Z"/>
        <path class="cls-1" d="M781.96,251.04l-11.82-35.98h5.81l8.89,27.71h-1.54l8.69-27.71h4.11l8.69,27.71h-1.54l8.89-27.71h5.81l-11.82,35.98h-4.11l-8.74-27.65h1.54l-8.74,27.65h-4.11Z"/>
        <path class="cls-1" d="M823.19,251.04v-35.98h5.91v35.98h-5.91ZM827.25,220.45v-5.4h19.89v5.4h-19.89ZM827.25,235.26v-5.19h18.4v5.19h-18.4ZM827.25,251.04v-5.4h20.15v5.4h-20.15Z"/>
        <path class="cls-1" d="M853.51,251.04v-35.98h5.91v35.98h-5.91ZM857.57,251.04v-5.14h10.33c1.82,0,3.22-.57,4.22-1.7.99-1.13,1.49-2.43,1.49-3.91,0-.99-.22-1.92-.67-2.78-.45-.86-1.1-1.54-1.95-2.06-.86-.51-1.89-.77-3.08-.77h-10.33v-5.14h9.46c1.54,0,2.78-.39,3.7-1.18.93-.79,1.39-1.95,1.39-3.5s-.46-2.71-1.39-3.5c-.92-.79-2.16-1.18-3.7-1.18h-9.46v-5.14h9.61c2.43,0,4.46.45,6.07,1.34,1.61.89,2.81,2.04,3.6,3.44.79,1.41,1.18,2.91,1.18,4.52,0,1.88-.52,3.55-1.57,4.99-1.04,1.44-2.58,2.61-4.6,3.5l.46-1.85c2.26.92,4.03,2.23,5.29,3.91,1.27,1.68,1.9,3.65,1.9,5.91,0,1.85-.45,3.55-1.36,5.09s-2.24,2.79-4.01,3.73c-1.77.94-3.93,1.41-6.5,1.41h-10.08Z"/>
      </g>
      <path d="M1060.95,327.91l57.09-142.57c3.73-9.3-1.54-19.89-8.29-25.04-6.76-5.14-18.27-7.51-26.05-1.04l-208.39,173.56c-7.55,6.29-11.05,15.1-7.99,24.86,1.96,6.25,8.86,15.88,18.16,15.91l107.78.36-50.89,126.5h25.14l46.89-118.82c3-7.63,1.13-15.48-3.18-21.52-4.32-6.04-11.15-9.14-19.35-9.16l-102.22-.23,205.9-171.53-56.33,142.18c-3.97,14.61,5.43,28.41,20.47,29.56l82.18.16v-22.97l-80.92-.21ZM985.24,500.45h36.95l119.68-99.77v-30.63l-156.63,130.4Z"/>
    </g>
    <g>
      <path class="cls-2" d="M743.16,450.13c0,33.62-13.75,64.17-35.91,86.33-22.15,22.15-52.71,35.9-86.33,35.9H122.23c-67.23,0-122.23-55-122.23-122.23,0-33.62,13.75-64.18,35.9-86.33,22.16-22.16,52.72-35.91,86.33-35.91h498.69c36.9,0,70.13,16.58,92.59,42.65,4.04,4.69,7.73,9.69,11.03,14.95,11.79,18.78,18.62,40.95,18.62,64.64Z"/>
      <g>
        <path d="M103.8,502.57l43.7-46.09c4.44-4.55,7.91-8.51,10.41-11.86,2.5-3.36,4.29-6.46,5.38-9.3,1.08-2.84,1.62-5.8,1.62-8.88,0-6.03-1.94-10.75-5.8-14.17-3.87-3.41-8.88-5.12-15.02-5.12s-11.33,1.45-15.88,4.35c-4.55,2.9-8.59,7.37-12.12,13.4l-11.27-9.39c4.67-7.74,10.3-13.57,16.9-17.5,6.6-3.93,14.22-5.89,22.87-5.89,7.28,0,13.63,1.42,19.03,4.27,5.4,2.85,9.59,6.83,12.55,11.95,2.96,5.12,4.44,11.1,4.44,17.92,0,4.89-.6,9.28-1.79,13.14-1.19,3.87-3.3,7.83-6.32,11.86-3.02,4.04-7.2,8.85-12.55,14.42l-35.34,36.36-20.83.51ZM103.8,512.3v-9.73l13.66-4.61h65.89v14.34h-79.55Z"/>
        <path d="M196.15,471.5l43.19-77.67h18.1l-44.04,77.67h-17.24ZM196.15,481.4v-9.9l6.83-4.44h83.99v14.34h-90.82ZM254.02,512.3v-78.35h15.88v78.35h-15.88Z"/>
        <path d="M294.98,519.13l47.46-131.96h14.34l-47.29,131.96h-14.51Z"/>
        <path d="M364.46,408.17v-14.34h78.87v9.9l-7,4.44h-71.87ZM383.07,512.3l44.38-109.08,15.88.51-43.36,108.57h-16.9Z"/>
      </g>
      <path d="M724.54,385.49l-35.92,62.53c-1.67,2.9-4.88,4.55-8.21,4.23l-78.87-7.82-26.68,104.51c-.63,2.47-2.33,4.53-4.64,5.61-2.31,1.07-4.98,1.06-7.28-.05l-70.93-34.1-42.76,51.96h-22.01l55.88-67.92c2.49-3.03,6.72-3.96,10.25-2.26l67.58,32.49,25.92-101.52c1.03-4.07,4.88-6.77,9.07-6.36l80.67,7.99,36.9-64.24c4.04,4.69,7.73,9.69,11.03,14.95Z"/>
    </g>
  </g>
</svg>