<svg width="31" height="31" viewBox="0 0 31 31" fill="none" xmlns="http://www.w3.org/2000/svg">
<g clip-path="url(#clip0_1_147)">
<path d="M23.3822 30.6868C18.1547 31.1235 13.068 31.0696 7.90482 30.7216C5.07794 30.5303 2.59029 28.9488 1.24556 26.5339C0.415764 25.0446 0.166999 23.4701 0.104372 21.7598C-0.0469745 17.6434 -0.0139217 13.6158 0.0869762 9.49764C0.11655 8.26412 0.260938 7.14194 0.601903 5.9867C1.46127 3.07599 3.82542 0.922101 6.81234 0.347963C7.95701 0.128746 9.04079 0 10.2185 0L20.9033 0.00521944C22.0653 0.00521944 23.1508 0.128746 24.2799 0.37406C26.6944 0.899484 28.7837 2.4253 29.864 4.65574C30.5025 5.97452 30.8034 7.37333 30.8643 8.86261C31.0522 13.3548 31.0383 17.7792 30.8504 22.2714C30.793 23.658 30.4938 24.9594 29.8884 26.2051C28.6793 28.693 26.2648 30.445 23.3805 30.6868H23.3822ZM20.3222 28.1728C21.5191 28.1728 22.5976 28.0441 23.6866 27.8318C25.9516 27.3916 27.5608 25.5822 27.9052 23.3344C28.1453 21.7651 28.2096 20.2688 28.2079 18.6699L28.2044 11.9264C28.2044 10.4424 28.1453 9.05225 27.9139 7.59429C27.5677 5.40386 25.9742 3.57184 23.7754 3.14558C22.4602 2.88983 21.1764 2.76108 19.8229 2.76108L11.645 2.75586C10.0793 2.75586 8.57457 2.84981 7.05763 3.17342C4.95095 3.62229 3.47227 5.38472 3.11217 7.46902C2.8234 9.14794 2.78165 10.7642 2.78338 12.4797L2.79208 18.6717C2.79382 20.281 2.8234 21.7929 3.09304 23.3727C3.44096 25.4117 4.82048 27.1915 6.85931 27.7274C8.08922 28.051 9.3574 28.1693 10.6499 28.1693L20.3205 28.1728H20.3222Z" fill="white"/>
<path d="M15.0686 7.54369C19.5498 7.31751 23.17 10.7797 23.3996 15.091C23.631 19.4545 20.2109 23.1777 15.8827 23.4108C11.5215 23.6457 7.80567 20.2826 7.53429 15.9487C7.26117 11.5957 10.5891 7.76812 15.0686 7.54195V7.54369ZM15.6861 20.6393C18.5426 20.4583 20.7554 18.1165 20.6284 15.3276C20.5258 13.0798 19.0854 11.1555 16.9387 10.5188C14.2823 9.73063 11.4484 11.199 10.549 13.8262C9.97845 15.4946 10.342 17.2779 11.4258 18.6768C12.3687 19.8946 13.9204 20.7506 15.6844 20.6393H15.6861Z" fill="white"/>
<path d="M24.3877 8.91649C23.4466 9.25575 22.4967 8.79122 22.1105 8.01526C21.6791 7.14536 21.9296 6.10669 22.8029 5.62476C23.7632 5.09412 24.9827 5.42816 25.4437 6.38506C25.896 7.32282 25.4837 8.52155 24.3877 8.91823V8.91649Z" fill="white"/>
</g>
<defs>
<clipPath id="clip0_1_147">
<rect width="31" height="31" fill="white"/>
</clipPath>
</defs>
</svg>
